<mxfile host="app.diagrams.net" modified="2023-06-12T04:25:02.702Z" agent="Mozilla/5.0 (Windows NT 10.0; Win64; x64) AppleWebKit/537.36 (KHTML, like Gecko) Chrome/114.0.0.0 Safari/537.36" etag="FxBOay3BwuaLcORcxunx" version="21.3.8" type="device">
  <diagram name="Página-1" id="F81lS2iAIFyvi0ztxPk1">
    <mxGraphModel dx="1050" dy="541" grid="1" gridSize="10" guides="1" tooltips="1" connect="1" arrows="1" fold="1" page="1" pageScale="1" pageWidth="827" pageHeight="1169" math="0" shadow="0">
      <root>
        <mxCell id="0" />
        <mxCell id="1" parent="0" />
        <mxCell id="kR2FZ_5vele88Jw7MbvY-1" value="users" style="swimlane;childLayout=stackLayout;horizontal=1;startSize=30;horizontalStack=0;rounded=1;fontSize=14;fontStyle=0;strokeWidth=2;resizeParent=0;resizeLast=1;shadow=0;dashed=0;align=center;" parent="1" vertex="1">
          <mxGeometry x="10" y="40" width="160" height="300" as="geometry" />
        </mxCell>
        <mxCell id="kR2FZ_5vele88Jw7MbvY-17" value="id_user: ObjectID(),&#xa;type_user: ENUM(),&#xa;email: String&#xa;password: String&#xa;username: String&#xa;birth_date: Date()&#xa;gender: String&#39;&#xa;country: String&#xa;postal_code: Integer&#xa;following_artists:&#xa;        [&#xa;        {artist_id: ObjectID(1)}&#xa;        ]&#xa;favorites_albums_songs:&#xa;        [&#xa;         {album_id: ObjectID()}&#xa;         {song_id: ObjectID()}&#xa;         ]" style="align=left;strokeColor=none;fillColor=none;spacingLeft=4;fontSize=12;verticalAlign=top;resizable=0;rotatable=0;part=1;" parent="kR2FZ_5vele88Jw7MbvY-1" vertex="1">
          <mxGeometry y="30" width="160" height="270" as="geometry" />
        </mxCell>
        <mxCell id="kR2FZ_5vele88Jw7MbvY-3" value="payments" style="swimlane;childLayout=stackLayout;horizontal=1;startSize=30;horizontalStack=0;rounded=1;fontSize=14;fontStyle=0;strokeWidth=2;resizeParent=0;resizeLast=1;shadow=0;dashed=0;align=center;" parent="1" vertex="1">
          <mxGeometry x="390" y="320" width="230" height="170" as="geometry" />
        </mxCell>
        <mxCell id="kR2FZ_5vele88Jw7MbvY-4" value="id_payment: ObjectID(),&#xa;user_id: ObjectID(),&#xa;payment_records:[&#xa;                {&#xa;                id_payment_record: ObjectID()&#xa;                order_number: Integer, Unique&#xa;                total: double&#xa;                date: Date()&#xa;                }]" style="align=left;strokeColor=none;fillColor=none;spacingLeft=4;fontSize=12;verticalAlign=top;resizable=0;rotatable=0;part=1;" parent="kR2FZ_5vele88Jw7MbvY-3" vertex="1">
          <mxGeometry y="30" width="230" height="140" as="geometry" />
        </mxCell>
        <mxCell id="kR2FZ_5vele88Jw7MbvY-5" value="playlists" style="swimlane;childLayout=stackLayout;horizontal=1;startSize=30;horizontalStack=0;rounded=1;fontSize=14;fontStyle=0;strokeWidth=2;resizeParent=0;resizeLast=1;shadow=0;dashed=0;align=center;" parent="1" vertex="1">
          <mxGeometry x="650" y="40" width="160" height="450" as="geometry" />
        </mxCell>
        <mxCell id="kR2FZ_5vele88Jw7MbvY-6" value="id_playlist: ObjectID()&#xa;title: String&#xa;songs_list:[&#xa;{&#xa;song_id: ObjectID(1),&#xa;}&#xa;]&#xa;song_count: 10,&#xa;type_playlist : ENUM()&#xa;created_by:[&#xa;{&#xa;    user_id: ObjectID(),&#xa;    creation_date: Date()&#xa;    }&#xa;    ]&#xa;playlist_deleted:[&#xa;    {&#xa;    playlist_id: ObjectID()&#xa;    deleted_date: Date()&#xa;    retrieve_playlist: Boolean&#xa;    }&#xa;    ],&#xa;adding_songs:[&#xa;    {&#xa;    user_id: ObjectID(),&#xa;    song_id: ObjectID(),&#xa;    added_date: Date()&#xa;    }&#xa;    ]" style="align=left;strokeColor=none;fillColor=none;spacingLeft=4;fontSize=12;verticalAlign=top;resizable=0;rotatable=0;part=1;" parent="kR2FZ_5vele88Jw7MbvY-5" vertex="1">
          <mxGeometry y="30" width="160" height="420" as="geometry" />
        </mxCell>
        <mxCell id="kR2FZ_5vele88Jw7MbvY-11" value="creditcards" style="swimlane;childLayout=stackLayout;horizontal=1;startSize=30;horizontalStack=0;rounded=1;fontSize=14;fontStyle=0;strokeWidth=2;resizeParent=0;resizeLast=1;shadow=0;dashed=0;align=center;" parent="1" vertex="1">
          <mxGeometry x="414" y="40" width="160" height="130" as="geometry" />
        </mxCell>
        <mxCell id="kR2FZ_5vele88Jw7MbvY-12" value="id_creditcard: ObjectID(),&#xa;card_number: Integer&#xa;expiration_month: Integer&#xa;expiration_year: Integer&#xa;security_code: String,&#xa;user_id: ObjectID()," style="align=left;strokeColor=none;fillColor=none;spacingLeft=4;fontSize=12;verticalAlign=top;resizable=0;rotatable=0;part=1;" parent="kR2FZ_5vele88Jw7MbvY-11" vertex="1">
          <mxGeometry y="30" width="160" height="100" as="geometry" />
        </mxCell>
        <mxCell id="kR2FZ_5vele88Jw7MbvY-13" value="subscriptions" style="swimlane;childLayout=stackLayout;horizontal=1;startSize=30;horizontalStack=0;rounded=1;fontSize=14;fontStyle=0;strokeWidth=2;resizeParent=0;resizeLast=1;shadow=0;dashed=0;align=center;" parent="1" vertex="1">
          <mxGeometry x="414" y="180" width="160" height="120" as="geometry" />
        </mxCell>
        <mxCell id="kR2FZ_5vele88Jw7MbvY-14" value="id_suscription: ObjectID()&#xa;start_date: Date(),&#xa;renewal_date: new Date(),&#xa;user_id: ObjectID(),&#xa;payment_method: ENUM()" style="align=left;strokeColor=none;fillColor=none;spacingLeft=4;fontSize=12;verticalAlign=top;resizable=0;rotatable=0;part=1;" parent="kR2FZ_5vele88Jw7MbvY-13" vertex="1">
          <mxGeometry y="30" width="160" height="90" as="geometry" />
        </mxCell>
        <mxCell id="kR2FZ_5vele88Jw7MbvY-20" value="paypal_pay" style="swimlane;childLayout=stackLayout;horizontal=1;startSize=30;horizontalStack=0;rounded=1;fontSize=14;fontStyle=0;strokeWidth=2;resizeParent=0;resizeLast=1;shadow=0;dashed=0;align=center;" parent="1" vertex="1">
          <mxGeometry x="200" y="40" width="160" height="90" as="geometry" />
        </mxCell>
        <mxCell id="kR2FZ_5vele88Jw7MbvY-21" value="id_paypal_pay: ObjectID()&#xa;paypal_username: String&#xa;user_id: ObjectID()" style="align=left;strokeColor=none;fillColor=none;spacingLeft=4;fontSize=12;verticalAlign=top;resizable=0;rotatable=0;part=1;" parent="kR2FZ_5vele88Jw7MbvY-20" vertex="1">
          <mxGeometry y="30" width="160" height="60" as="geometry" />
        </mxCell>
        <mxCell id="kR2FZ_5vele88Jw7MbvY-22" value="albums" style="swimlane;childLayout=stackLayout;horizontal=1;startSize=30;horizontalStack=0;rounded=1;fontSize=14;fontStyle=0;strokeWidth=2;resizeParent=0;resizeLast=1;shadow=0;dashed=0;align=center;" parent="1" vertex="1">
          <mxGeometry x="200" y="270" width="160" height="220" as="geometry" />
        </mxCell>
        <mxCell id="kR2FZ_5vele88Jw7MbvY-23" value="id_album: ObjectID(),&#xa;title: String&#xa;release_year: Date()&#xa;cover_image: BinData()&#xa;songs_list:&#xa;    [&#xa;    {song_id: ObjectID(1)}&#xa;    ]&#xa;posted_by: [{&#xa;    artist_id: ObjectID()&#xa;    posted_date: Date()&#xa;    }]&#xa;" style="align=left;strokeColor=none;fillColor=none;spacingLeft=4;fontSize=12;verticalAlign=top;resizable=0;rotatable=0;part=1;" parent="kR2FZ_5vele88Jw7MbvY-22" vertex="1">
          <mxGeometry y="30" width="160" height="190" as="geometry" />
        </mxCell>
        <mxCell id="kR2FZ_5vele88Jw7MbvY-40" value="songs" style="swimlane;childLayout=stackLayout;horizontal=1;startSize=30;horizontalStack=0;rounded=1;fontSize=14;fontStyle=0;strokeWidth=2;resizeParent=0;resizeLast=1;shadow=0;dashed=0;align=center;" parent="1" vertex="1">
          <mxGeometry x="10" y="360" width="160" height="130" as="geometry" />
        </mxCell>
        <mxCell id="kR2FZ_5vele88Jw7MbvY-41" value="id_song:ObjectID()&#xa;title: String&#xa;duration: Integer&#xa;plays_counted:Integer&#xa;artist_id: ObjectID()&#xa;album_id:ObjectID()" style="align=left;strokeColor=none;fillColor=none;spacingLeft=4;fontSize=12;verticalAlign=top;resizable=0;rotatable=0;part=1;" parent="kR2FZ_5vele88Jw7MbvY-40" vertex="1">
          <mxGeometry y="30" width="160" height="100" as="geometry" />
        </mxCell>
        <mxCell id="IOiJwc3GCYaGWhzp81Km-4" value="Spotify" style="text;strokeColor=none;align=center;fillColor=none;html=1;verticalAlign=middle;whiteSpace=wrap;rounded=0;" parent="1" vertex="1">
          <mxGeometry x="370" width="60" height="30" as="geometry" />
        </mxCell>
        <mxCell id="IOiJwc3GCYaGWhzp81Km-7" value="artists" style="swimlane;childLayout=stackLayout;horizontal=1;startSize=30;horizontalStack=0;rounded=1;fontSize=14;fontStyle=0;strokeWidth=2;resizeParent=0;resizeLast=1;shadow=0;dashed=0;align=center;" parent="1" vertex="1">
          <mxGeometry x="200" y="160" width="160" height="90" as="geometry" />
        </mxCell>
        <mxCell id="IOiJwc3GCYaGWhzp81Km-8" value="id_artist: ObjectID(),&#xa;name: String&#xa;artistImage:  BinData()" style="align=left;strokeColor=none;fillColor=none;spacingLeft=4;fontSize=12;verticalAlign=top;resizable=0;rotatable=0;part=1;" parent="IOiJwc3GCYaGWhzp81Km-7" vertex="1">
          <mxGeometry y="30" width="160" height="60" as="geometry" />
        </mxCell>
      </root>
    </mxGraphModel>
  </diagram>
</mxfile>
